<?xml version="1.0" encoding="utf-8"?>
<!-- Generator: Adobe Illustrator 15.0.0, SVG Export Plug-In . SVG Version: 6.00 Build 0)  -->
<!DOCTYPE svg PUBLIC "-//W3C//DTD SVG 1.1//EN" "http://www.w3.org/Graphics/SVG/1.1/DTD/svg11.dtd">
<svg version="1.1" id="Calque_2" xmlns="http://www.w3.org/2000/svg" xmlns:xlink="http://www.w3.org/1999/xlink" x="0px" y="0px"
	 width="66px" height="93px" viewBox="0 0 66 93" enable-background="new 0 0 66 93" xml:space="preserve">
<g>
	<path fill="#616262" d="M48,12.604l11.188,12.521H48V12.604 M47.016,7H45v18.25c0,0-0.273,2.875,2.085,2.875
		c2.875,0,13.915,0,13.915,0h1h0.875V24.75L47.016,7L47.016,7z"/>
	<g>
		<path fill="#616262" d="M16.598,75.271v6.027h-4.095V63.711h7.139c2.125,0,3.791,0.524,4.994,1.57
			c1.204,1.047,1.806,2.452,1.806,4.216s-0.602,3.167-1.806,4.209c-1.204,1.043-2.869,1.564-4.994,1.564H16.598z M16.598,72.13
			h3.044c0.901,0,1.58-0.239,2.035-0.719c0.455-0.479,0.682-1.108,0.682-1.89c0-0.798-0.225-1.441-0.676-1.933
			s-1.131-0.737-2.041-0.737h-3.044V72.13z"/>
		<path fill="#616262" d="M28.736,81.298V63.711h5.811c2.487,0,4.458,0.699,5.912,2.096c1.453,1.397,2.18,3.264,2.18,5.599v2.198
			c0,2.344-0.725,4.212-2.174,5.604c-1.449,1.394-3.414,2.09-5.895,2.09H28.736z M32.831,66.852v11.306h1.474
			c1.489,0,2.57-0.396,3.243-1.189c0.672-0.793,1.009-1.915,1.009-3.364v-2.223c0-1.44-0.337-2.556-1.009-3.346
			c-0.673-0.789-1.766-1.184-3.279-1.184H32.831z"/>
		<path fill="#616262" d="M56.046,74.22h-6.909v7.078h-4.095V63.711h12.235v3.141h-8.141v4.228h6.909V74.22z"/>
	</g>
	<path fill="#616262" d="M60.506,22.093l0.031,63.282L7.625,85.399L7.587,10h41.959L46.81,7H7.587C5.952,7,4.625,8.333,4.625,9.978
		v75.422c0,1.644,1.327,2.976,2.962,2.976h52.95c1.637,0,2.963-1.332,2.963-2.976V25.375L60.506,22.093z"/>
</g>
<path fill="#616161" d="M50.682,41.058c-0.094-0.008-2.348-0.215-5.809-0.215c-1.086,0-2.176,0.02-3.254,0.063
	c-6.836-5.129-12.434-10.262-15.43-13.141c0.055-0.316,0.09-0.566,0.109-0.758c0.395-4.172-0.043-6.988-1.301-8.371
	c-0.824-0.906-2.035-1.207-3.297-0.864c-0.781,0.208-2.23,0.965-2.695,2.512c-0.512,1.711,0.313,3.786,2.477,6.192
	c0.031,0.035,0.77,0.805,2.102,2.109c-0.867,4.133-3.137,13.059-4.238,17.344c-2.586,1.382-4.742,3.046-6.41,4.956l-0.109,0.125
	l-0.07,0.148c-0.176,0.363-0.996,2.238-0.379,3.742c0.281,0.684,0.809,1.184,1.527,1.445l0.191,0.055c0,0,0.172,0.035,0.477,0.035
	c1.336,0,4.633-0.699,6.398-7.211l0.43-1.652c6.168-3,13.879-3.964,19.469-4.234c2.875,2.133,5.734,4.089,8.508,5.823l0.09,0.051
	c0.133,0.07,1.352,0.672,2.773,0.672c2.035,0,3.52-1.25,4.074-3.425l0.027-0.148c0.152-1.242-0.156-2.363-0.902-3.238
	C53.869,41.226,50.943,41.065,50.682,41.058L50.682,41.058z M14.623,54.037c-0.012-0.016-0.02-0.031-0.023-0.047
	c-0.133-0.32,0.027-1.094,0.262-1.66c1.004-1.125,2.211-2.16,3.605-3.09C17.111,53.635,15.135,54.014,14.623,54.037L14.623,54.037z
	 M23.24,24.843L23.24,24.843c-2.082-2.32-2.051-3.469-1.941-3.856c0.188-0.648,1.016-0.894,1.023-0.894
	c0.418-0.113,0.672-0.094,0.898,0.156c0.512,0.563,0.949,2.258,0.777,5.363C23.506,25.12,23.24,24.843,23.24,24.843L23.24,24.843z
	 M22.166,44.604l0.035-0.141l-0.004,0.004c1.043-4.09,2.547-10.074,3.414-13.918l0.031,0.027v-0.016
	c2.801,2.637,7.094,6.492,12.234,10.504h-0.055l0.082,0.066C33.064,41.542,27.279,42.495,22.166,44.604L22.166,44.604z
	 M53.967,45.944c-0.367,1.355-1.078,1.539-1.727,1.539c-0.754,0-1.48-0.313-1.648-0.391c-1.887-1.183-3.816-2.468-5.766-3.851h0.047
	c3.34,0,5.566,0.203,5.652,0.211c0.559,0.02,2.324,0.281,3.082,1.176C53.908,44.979,54.021,45.397,53.967,45.944L53.967,45.944z
	 M53.967,45.944"/>
</svg>
